<svg width="34" height="34" viewBox="0 0 34 34" fill="none" xmlns="http://www.w3.org/2000/svg">
<path d="M20.3976 14.9315C23.1663 10.5297 25.0932 6.39772 25.9725 2.94511C26.197 2.08894 25.8603 1.30722 25.0184 0.748844C23.7276 -0.107329 21.4733 -0.256228 20.5473 0.441739C20.1357 0.758151 19.9954 1.21415 20.1638 1.71669C20.2479 1.94004 20.2573 2.4798 20.1544 2.87997V2.89858C18.4052 10.3622 8.57436 25.5034 0.885508 30.7614C-0.115353 31.5059 -0.180828 32.6227 0.258802 33.302C0.52071 33.7022 0.988398 34 1.57769 34C1.91443 34 2.28859 33.9069 2.70015 33.6743C7.68575 30.7614 13.5038 24.945 18.3398 18.0491C21.8942 20.3571 27.1417 25.4197 28.9189 28.863C29.1809 29.4213 29.7889 29.7564 30.5933 29.775C31.6035 29.8029 32.9785 29.3004 33.5304 28.286C33.9045 27.5973 33.8204 26.797 33.3059 26.0525C31.4632 23.1582 24.5601 17.2395 20.407 14.9408L20.3976 14.9315Z" fill="#4D342C"/>
</svg>
